HIERARCHY
ROOT pelvis
{
OFFSET 0 0 0
CHANNELS 6 Xrotation Yrotation Zrotation Xposition Yposition Zposition 
JOINT lfemur
{
OFFSET 0 96.711 0
CHANNELS 3 Xrotation Yrotation Zrotation 
JOINT ltibia
{
OFFSET 0 0 -400.394
CHANNELS 3 Xrotation Yrotation Zrotation 
JOINT lfoot
{
OFFSET 0 0 -397.564
CHANNELS 3 Xrotation Yrotation Zrotation 
JOINT ltoes
{
OFFSET 91.659 0 0
CHANNELS 3 Xrotation Yrotation Zrotation 
End Site
{
OFFSET 0 0 0
}
}
}
}
}
JOINT rfemur
{
OFFSET 0 -96.711 0
CHANNELS 3 Xrotation Yrotation Zrotation 
JOINT rtibia
{
OFFSET 0 0 -400.394
CHANNELS 3 Xrotation Yrotation Zrotation 
JOINT rfoot
{
OFFSET 0 0 -397.564
CHANNELS 3 Xrotation Yrotation Zrotation 
JOINT rtoes
{
OFFSET 91.659 0 0
CHANNELS 3 Xrotation Yrotation Zrotation 
End Site
{
OFFSET 0 0 0
}
}
}
}
}
JOINT thorax
{
OFFSET -0 0 150.555
CHANNELS 3 Xrotation Yrotation Zrotation 
JOINT head
{
OFFSET 0 0 364.332
CHANNELS 3 Xrotation Yrotation Zrotation 
End Site
{
OFFSET 0 0 0
}
}
JOINT lclavicle
{
OFFSET 0 0 298.293
CHANNELS 3 Xrotation Yrotation Zrotation 
JOINT lhumerus
{
OFFSET 0 153.424 -16.4259
CHANNELS 3 Xrotation Yrotation Zrotation 
JOINT lradius
{
OFFSET 0 0 -263.893
CHANNELS 3 Xrotation Yrotation Zrotation 
JOINT lhand
{
OFFSET 0 0 -204.185
CHANNELS 3 Xrotation Yrotation Zrotation 
JOINT Left-hand
{
OFFSET 0 0 0
CHANNELS 3 Xrotation Yrotation Zrotation 
JOINT LThumb
{
OFFSET 5 0 10
CHANNELS 3 Xrotation Yrotation Zrotation 
JOINT LThumb_CARPE
{
OFFSET 0 0 0
CHANNELS 3 Xrotation Yrotation Zrotation 
JOINT LThumb_TM
{
OFFSET 0 10 0
CHANNELS 3 Xrotation Zrotation Xrotation 
JOINT LThumb_MCP
{
OFFSET 45 0 0
CHANNELS 3 Xrotation Yrotation Zrotation 
JOINT LThumb_IP
{
OFFSET 40 0 0
CHANNELS 3 Xrotation Yrotation Zrotation 
End Site
{
OFFSET 35 0 0
}
}
}
}
}
}
JOINT LIndex
{
OFFSET 5 0 10
CHANNELS 3 Xrotation Yrotation Zrotation 
JOINT LIndex_MCP
{
OFFSET 90 0 0
CHANNELS 3 Xrotation Yrotation Zrotation 
JOINT LIndex_IPP
{
OFFSET 45 0 0
CHANNELS 3 Xrotation Yrotation Zrotation 
JOINT LIndex_IDP
{
OFFSET 28 0 0
CHANNELS 3 Xrotation Yrotation Zrotation 
End Site
{
OFFSET 25 0 0
}
}
}
}
}
JOINT LMiddle
{
OFFSET 5 3 -0
CHANNELS 3 Xrotation Yrotation Zrotation 
JOINT LMiddle_MCP
{
OFFSET 95 0 0
CHANNELS 3 Xrotation Yrotation Zrotation 
JOINT LMiddle_IPP
{
OFFSET 55 0 0
CHANNELS 3 Xrotation Yrotation Zrotation 
JOINT LMiddle_IDP
{
OFFSET 30 0 0
CHANNELS 3 Xrotation Yrotation Zrotation 
End Site
{
OFFSET 25 0 0
}
}
}
}
}
JOINT LRing
{
OFFSET 5 3 -10
CHANNELS 3 Xrotation Yrotation Zrotation 
JOINT LRing_MCP
{
OFFSET 90 0 0
CHANNELS 3 Xrotation Yrotation Zrotation 
JOINT LRing_IPP
{
OFFSET 50 0 0
CHANNELS 3 Xrotation Yrotation Zrotation 
JOINT LRing_IDP
{
OFFSET 30 0 0
CHANNELS 3 Xrotation Yrotation Zrotation 
End Site
{
OFFSET 25 0 0
}
}
}
}
}
JOINT LLittle
{
OFFSET 5 0 -20
CHANNELS 3 Xrotation Yrotation Zrotation 
JOINT LLittle_MCP
{
OFFSET 85 0 0
CHANNELS 3 Xrotation Yrotation Zrotation 
JOINT LLittle_IPP
{
OFFSET 40 0 0
CHANNELS 3 Xrotation Yrotation Zrotation 
JOINT LLittle_IDP
{
OFFSET 25 0 0
CHANNELS 3 Xrotation Yrotation Zrotation 
End Site
{
OFFSET 25 0 0
}
}
}
}
}
}
}
}
}
}
JOINT rclavicle
{
OFFSET 0 0 298.293
CHANNELS 3 Xrotation Yrotation Zrotation 
JOINT rhumerus
{
OFFSET 0 -153.424 -16.4259
CHANNELS 3 Xrotation Yrotation Zrotation 
JOINT rradius
{
OFFSET 0 0 -263.893
CHANNELS 3 Xrotation Yrotation Zrotation 
JOINT rhand
{
OFFSET 0 0 -204.185
CHANNELS 3 Xrotation Yrotation Zrotation 
JOINT Right-hand
{
OFFSET 0 0 0
CHANNELS 3 Xrotation Yrotation Zrotation 
JOINT RThumb
{
OFFSET 5 0 -10
CHANNELS 3 Xrotation Yrotation Zrotation 
JOINT RThumb_CARPE
{
OFFSET 0 0 0
CHANNELS 3 Xrotation Yrotation Zrotation 
JOINT RThumb_TM
{
OFFSET 0 10 0
CHANNELS 3 Xrotation Zrotation Xrotation 
JOINT RThumb_MCP
{
OFFSET 45 0 0
CHANNELS 3 Xrotation Yrotation Zrotation 
JOINT RThumb_IP
{
OFFSET 40 0 0
CHANNELS 3 Xrotation Yrotation Zrotation 
End Site
{
OFFSET 35 0 0
}
}
}
}
}
}
JOINT RIndex
{
OFFSET 5 0 -10
CHANNELS 3 Xrotation Yrotation Zrotation 
JOINT RIndex_MCP
{
OFFSET 90 0 0
CHANNELS 3 Xrotation Yrotation Zrotation 
JOINT RIndex_IPP
{
OFFSET 45 0 0
CHANNELS 3 Xrotation Yrotation Zrotation 
JOINT RIndex_IDP
{
OFFSET 28 0 0
CHANNELS 3 Xrotation Yrotation Zrotation 
End Site
{
OFFSET 25 0 0
}
}
}
}
}
JOINT RMiddle
{
OFFSET 5 3 0
CHANNELS 3 Xrotation Yrotation Zrotation 
JOINT RMiddle_MCP
{
OFFSET 95 0 0
CHANNELS 3 Xrotation Yrotation Zrotation 
JOINT RMiddle_IPP
{
OFFSET 55 0 0
CHANNELS 3 Xrotation Yrotation Zrotation 
JOINT RMiddle_IDP
{
OFFSET 30 0 0
CHANNELS 3 Xrotation Yrotation Zrotation 
End Site
{
OFFSET 25 0 0
}
}
}
}
}
JOINT RRing
{
OFFSET 5 3 10
CHANNELS 3 Xrotation Yrotation Zrotation 
JOINT RRing_MCP
{
OFFSET 90 0 0
CHANNELS 3 Xrotation Yrotation Zrotation 
JOINT RRing_IPP
{
OFFSET 50 0 0
CHANNELS 3 Xrotation Yrotation Zrotation 
JOINT RRing_IDP
{
OFFSET 30 0 0
CHANNELS 3 Xrotation Yrotation Zrotation 
End Site
{
OFFSET 25 0 0
}
}
}
}
}
JOINT RLittle
{
OFFSET 5 0 20
CHANNELS 3 Xrotation Yrotation Zrotation 
JOINT RLittle_MCP
{
OFFSET 85 0 0
CHANNELS 3 Xrotation Yrotation Zrotation 
JOINT RLittle_IPP
{
OFFSET 40 0 0
CHANNELS 3 Xrotation Yrotation Zrotation 
JOINT RLittle_IDP
{
OFFSET 25 0 0
CHANNELS 3 Xrotation Yrotation Zrotation 
End Site
{
OFFSET 25 0 0
}
}
}
}
}
}
}
}
}
}
}
}
MOTION
Frames: 6
Frame Time: 0.1
-0.669451788 -4.019022613333334 -5.059800533333333 288.1197906666667 -150.485488 877.6929893333333 -3.073238146666667 6.60462884 17.09920666666666 0 1.619579906666667 0 -1.16764064 2.79645264 -1.109513293333333 0 6.003018 0 0.7564850026666667 0.7258727226666667 -9.325151613333334 0 12.5755188 0 2.737231933333333 0.9038606413333333 2.696807213333333 0 2.03681048 0 2.905702746666667 -0.04768842586666661 -3.05527652 0.3573221253333335 -4.101575173333333 1.224021306666667 -10.79576066666667 0 -10.2855396 37.06228133333333 -58.62609426666667 15.48398746666667 0 -98.3979564 23.80052466666667 -0.7387938213333333 89.84717533333334 0 0 -0.09867887293333333 -0.2964851573333333 0 0 0 156.794132 0 0 0 41.48011946666667 -88.32638133333333 0 0 -1.898087279999999 0 0 -25.84473453333333 0 0 0 0 -2.46511568 -14.4383124 0 0 -5.49268108 0 0 -4.78081916 0 5.43 0 0 0 -12.34365066666667 0 0 -2.7840568 0 0 -9.180872533333332 0 11.67 0 0 3.101737013333334 -20.67094293333333 0 0 -13.09053093333333 0 0 -7.877334520000001 0 21.93 0 0 2.560507706666666 -9.650628906666666 0 0 -28.45521386666666 0 0 -0.01286365492000002 11.92867986666667 0 14.3834112 -31.3761412 -55.02958866666667 -5.274646573333333 0 -100.553892 -17.66226706666667 179.780716 -89.67759946666668 0 0 -0.126976716 0.1131051026666667 0 0 0 -156.0703213333333 0 0 0 36.49497146666667 87.59839266666667 0 0 9.601800666666666 0 0 -20.08924133333333 0 0 0 0 -0.1542295693333334 -8.229269146666665 0 0 -11.5622316 0 0 4.054923773333333 0 -5.43 0 0 0 -9.484812373333334 0 0 -9.466444426666666 0 0 -0.485258028 0 -11.67 0 0 -3.38303972 -10.43031226666667 0 0 -15.6139468 0 0 -3.012103146666667 0 -21.93 0 0 -3.09599112 -0.3574801695999988 0 0 -36.28963733333333 0 0 -5.180291786666667
-0.729773024 -3.718953946666667 -5.879293466666667 287.7609546666667 -150.7734853333333 877.8269706666666 -3.070668666666667 6.392507866666667 17.8386832 0 1.515859893333333 0 -1.100193706666667 2.732472933333333 -1.046687306666667 0 6.144103626666667 0 0.8079357626666667 0.4127840746666667 -8.925558586666666 0 12.39012053333333 0 3.211923306666667 1.202449866666667 3.148783386666667 0 1.93800792 0 3.33621544 -0.9168783413333333 -2.840410346666667 -0.05943721813333335 -3.371410186666667 1.850401386666667 -10.05988533333333 0 -9.123284133333332 45.31622826666667 -56.8103472 24.85711786666667 0 -98.17022559999999 26.25773706666666 -0.6141370026666666 89.84729680000001 0 0 -0.09792311226666667 -0.301617264 0 0 0 151.22832 0 0 0 36.27410426666667 -85.8901736 0 0 -8.795831653333334 0 0 -27.56868346666667 0 0 0 0 -2.853441466666667 -22.51643306666667 0 0 -8.739253093333334 0 0 -4.34003528 0 5.43 0 0 0 -17.41079013333333 0 0 -8.086692186666667 0 0 -9.050274346666667 0 11.67 0 0 3.93962464 -23.53646293333333 0 0 -16.48717573333333 0 0 -7.8434016 0 21.93 0 0 3.596954853333333 -11.26007626666667 0 0 -31.64059813333333 0 0 0.3271269866666666 11.0167704 0 13.7574896 -37.41292986666667 -55.02183013333334 -11.98019706666667 0 -99.40880986666667 -20.42998506666667 179.575208 -89.66376693333333 0 0 -0.1250046346666667 0.1127688826666667 0 0 0 -154.6927626666667 0 0 0 34.3110456 89.8788472 0 0 7.787160586666667 0 0 -20.90589866666667 0 0 0 0 -0.01538974346666667 -17.67960506666667 0 0 -14.46384133333333 0 0 3.988480826666667 0 -5.43 0 0 0 -21.88224106666667 0 0 -14.10630426666667 0 0 -0.2671386480000001 0 -11.67 0 0 -3.970794586666667 -18.92127226666667 0 0 -22.62038426666667 0 0 -1.869303413333333 0 -21.93 0 0 -3.69210024 -8.032173013333333 0 0 -39.48144746666667 0 0 -5.171402426666667
-0.7585480920000001 -3.46260392 -6.24486572 288.013424 -151.15288 877.8732520000001 -3.03818996 6.20622864 18.1398272 0 1.47388664 0 -1.0546474 2.69800512 -1.00401024 0 6.1524076 0 0.8570926679999999 0.279695832 -8.886171279999999 0 12.0981544 0 3.59129024 1.50404772 3.50272804 0 1.4433634 0 3.42653112 -1.10870068 -2.64168968 0.4338490799999999 -3.68720624 1.9490698 -9.83581568 0 -8.50176976 51.323866 -54.3711624 37.0316 0 -97.72183320000001 31.5692404 -0.428526036 89.8484196 0 0 -0.1075492 -0.308298352 0 0 0 147.16846 0 0 0 32.7444008 -83.96012680000001 0 0 -14.000104 0 0 -28.3853072 0 0 0 0 -3.07528136 -32.164592 0 0 -10.0960464 0 0 -4.33890256 0 5.43 0 0 0 -25.7370176 0 0 -10.4545204 0 0 -8.470184959999999 0 11.67 0 0 4.0745596 -28.100318 0 0 -19.6911992 0 0 -7.227982 0 21.93 0 0 3.96698356 -13.4941208 0 0 -33.0705544 0 0 0.586428288 10.5201528 0 12.6622108 -41.9053204 -54.7766076 -22.7962168 0 -98.3439992 -26.3917108 179.541708 -89.662774 0 0 -0.120842708 0.109872336 0 0 0 -153.573804 0 0 0 33.6566048 90.5014504 0 0 7.47974332 0 0 -21.2320324 0 0 0 0 0.004288438080000001 -20.436588 0 0 -14.8798496 0 0 4.41600828 0 -5.43 0 0 0 -27.2371048 0 0 -17.375968 0 0 0.3679549039999998 0 -11.67 0 0 -3.99279332 -23.6154692 0 0 -24.2284008 0 0 -1.49672908 0 -21.93 0 0 -3.71207828 -11.1989768 0 0 -39.9401176 0 0 -5.76426104
-0.7071066613333334 -3.33416504 -6.235186026666667 288.6436506666666 -151.9507546666667 877.8390000000001 -3.04464144 6.185086933333333 18.14343893333333 0 1.34175488 0 -1.071323333333333 2.7326924 -1.019203333333333 0 6.17499872 0 0.8817286746666667 0.2191799813333333 -8.853269253333334 0 12.03960986666667 0 3.55568216 1.540522426666667 3.465540906666666 0 1.17330984 0 3.4019588 -1.467755786666667 -3.01144104 0.7534492026666666 -3.67295808 2.154407466666667 -10.5525368 0 -7.138096346666667 54.21405386666667 -51.2766056 43.927624 0 -96.73290666666666 35.19579146666667 -0.417537698666667 89.86546906666666 0 0 -0.1069042853333333 -0.3129811146666667 0 0 0 145.6446346666667 0 0 0 31.96613546666666 -82.92021333333334 0 0 -15.52791066666667 0 0 -28.85844133333334 0 0 0 0 -3.052525413333333 -32.51108133333333 0 0 -10.08664186666667 0 0 -4.338849226666667 0 5.43 0 0 0 -25.6475688 0 0 -10.504992 0 0 -8.435959199999999 0 11.67 0 0 4.339288933333333 -28.368968 0 0 -19.70772 0 0 -7.241284293333333 0 21.93 0 0 4.231264186666667 -13.93962986666667 0 0 -34.0634216 0 0 0.5652571573333334 10.47087973333333 0 11.41560426666667 -44.41791413333333 -53.3000944 -29.78407813333333 0 -98.15935466666666 -29.923376 179.6479946666667 -89.67469680000001 0 0 -0.1126406853333333 0.1034539786666667 0 0 0 -153.5743653333333 0 0 0 32.2023776 92.0974968 0 0 7.505472373333333 0 0 -21.20609546666667 0 0 0 0 -0.0004296614026666664 -20.33175413333333 0 0 -15.31571066666667 0 0 4.436163653333334 0 -5.43 0 0 0 -27.12090746666667 0 0 -17.2459048 0 0 0.6342920373333333 0 -11.67 0 0 -3.987710346666666 -23.90464586666667 0 0 -25.4578192 0 0 -1.208603493333333 0 -21.93 0 0 -3.70726048 -11.11319173333333 0 0 -39.8821968 0 0 -5.749595946666667
-0.6649324466666666 -3.358790266666667 -6.045628666666667 289.9475066666667 -153.0240533333333 877.7393133333334 -3.0159044 6.296685733333334 17.897198 0 1.326549866666667 0 -0.9923991733333333 2.690319733333333 -0.9448681466666666 0 6.149242 0 0.91226208 0.3456002066666667 -8.966626933333334 0 12.079708 0 3.4698148 1.394322066666666 3.390625133333333 0 1.2002268 0 3.273035866666667 -1.6500016 -3.2969426 0.70304722 -2.958197733333333 2.2342348 -11.370492 0 -6.395779933333333 55.42547333333334 -46.74738133333334 43.80523933333333 0 -96.25690933333334 35.790664 -0.5433037733333332 89.84649066666667 0 0 -0.08566990199999999 -0.3091559666666667 0 0 0 143.9115266666666 0 0 0 29.40592666666667 -82.70262866666667 0 0 -17.051436 0 0 -29.73344733333333 0 0 0 0 -3.248114133333333 -32.512878 0 0 -11.15969 0 0 -4.3253946 0 5.43 0 0 0 -25.60813466666667 0 0 -10.48330933333333 0 0 -8.446610399999999 0 11.67 0 0 4.356328133333333 -28.90836666666667 0 0 -19.684684 0 0 -7.2367726 0 21.93 0 0 4.250647533333333 -14.32406066666667 0 0 -33.989052 0 0 0.5517383933333333 10.746444 0 10.76480066666667 -46.528896 -49.828072 -31.23254866666667 0 -99.19511999999999 -31.447052 179.6893533333333 -89.67940666666667 0 0 -0.1027509 0.09427269533333332 0 0 0 -152.5807866666667 0 0 0 30.213012 94.19873933333334 0 0 7.4688592 0 0 -21.21289866666667 0 0 0 0 0.0002961771933333344 -18.64371266666667 0 0 -15.283828 0 0 4.4313612 0 -5.43 0 0 0 -26.169774 0 0 -17.25157133333333 0 0 0.6202375533333333 0 -11.67 0 0 -3.987794133333333 -23.92025266666667 0 0 -25.40616133333333 0 0 -1.227990333333333 0 -21.93 0 0 -3.707764866666666 -11.128204 0 0 -39.89294533333334 0 0 -5.7547998
-0.601811128 -3.56694712 -5.88519392 291.274432 -154.257472 877.545088 -2.99270808 6.51765016 17.717648 0 1.470632 0 -0.951900824 2.59198928 -0.908004712 0 6.09032448 0 0.9172212719999999 0.592950856 -8.983676239999999 0 12.2418984 0 3.29577424 1.19547592 3.23167824 0 1.17720496 0 3.02999968 -1.52353816 -3.45470088 0.482926904 -2.17229272 2.6268988 -12.4625584 0 -6.37092696 55.2434768 -40.9177512 39.5962256 0 -96.12360080000001 35.46489519999999 -0.634862496 89.84719440000001 0 0 -0.09170621599999999 -0.309955768 0 0 0 141.626056 0 0 0 25.8059744 -82.5448304 0 0 -17.084072 0 0 -29.7371632 0 0 0 0 -3.46076192 -28.5874176 0 0 -10.610056 0 0 -3.90015296 0 5.43 0 0 0 -23.1151056 0 0 -10.5475328 0 0 -8.470393360000001 0 11.67 0 0 4.49784712 -28.4598232 0 0 -19.6864552 0 0 -7.23772696 0 21.93 0 0 4.272140719999999 -14.3066592 0 0 -34.0349088 0 0 -0.005655619199999996 11.4083992 0 10.563264 -47.8263928 -45.0216064 -28.2542504 0 -100.911376 -30.1045488 179.807904 -89.6814952 0 0 -0.09755179360000001 0.08468437520000001 0 0 0 -152.729272 0 0 0 29.851856 94.60789440000001 0 0 8.20703512 0 0 -21.2109048 0 0 0 0 -0.00179111428 -18.685764 0 0 -15.2883568 0 0 4.43190112 0 -5.43 0 0 0 -25.1923728 0 0 -17.2489544 0 0 0.622482168 0 -11.67 0 0 -3.98772592 -23.0475752 0 0 -24.840132 0 0 -1.2248432 0 -21.93 0 0 -3.70534672 -11.1239024 0 0 -39.8902592 0 0 -5.7534612
